<?xml version="1.0" encoding="UTF-8" standalone="no"?>
<svg
   id="Layer_1"
   data-name="Layer 1"
   viewBox="0 0 1275.8537 163.4877"
   version="1.1"
   sodipodi:docname="logo-OCTOinnovation.svg"
   width="1275.8538"
   height="163.4877"
   inkscape:version="1.2.2 (732a01da63, 2022-12-09)"
   xmlns:inkscape="http://www.inkscape.org/namespaces/inkscape"
   xmlns:sodipodi="http://sodipodi.sourceforge.net/DTD/sodipodi-0.dtd"
   xmlns="http://www.w3.org/2000/svg"
   xmlns:svg="http://www.w3.org/2000/svg">
  <sodipodi:namedview
     id="namedview462"
     pagecolor="#ffffff"
     bordercolor="#000000"
     borderopacity="0.25"
     inkscape:showpageshadow="2"
     inkscape:pageopacity="0.0"
     inkscape:pagecheckerboard="0"
     inkscape:deskcolor="#d1d1d1"
     showgrid="false"
     showguides="true"
     inkscape:zoom="0.66569051"
     inkscape:cx="383.81199"
     inkscape:cy="-300.43991"
     inkscape:window-width="2560"
     inkscape:window-height="1377"
     inkscape:window-x="-8"
     inkscape:window-y="-8"
     inkscape:window-maximized="1"
     inkscape:current-layer="Layer_1"
     inkscape:document-units="px" />
  <defs
     id="defs367">
    <style
       id="style365">
      .cls-1 {
        fill: #d1e4cb;
      }

      .cls-1, .cls-2, .cls-3, .cls-4, .cls-5, .cls-6, .cls-7, .cls-8, .cls-9 {
        stroke-width: 0px;
      }

      .cls-2 {
        fill: #85c080;
      }

      .cls-3 {
        fill: #92c68c;
      }

      .cls-4 {
        fill: #a7cfa0;
      }

      .cls-5 {
        fill: #bcdab5;
      }

      .cls-6 {
        fill: #78bb73;
      }

      .cls-7 {
        fill: #c5debf;
      }

      .cls-8 {
        fill: #9cca95;
      }

      .cls-9 {
        fill: #005595;
      }
    </style>
  </defs>
  <rect
     style="display:none;fill:#005595;fill-opacity:1;stroke-width:1.10143;stop-color:#000000"
     id="rect1819"
     width="1275.8538"
     height="163.4877"
     x="0"
     y="0"
     inkscape:label="Temporary background to show reverse image" />
  <path
     class="cls-3"
     d="m 91.869889,129.67081 c -3.44,0 -6.76,1.85 -8.48,5.1 -2.5,4.67 -0.72,10.47 3.96,12.97 1.43,0.76 2.97,1.12 4.49,1.12 3.44,0 6.76,-1.85 8.490001,-5.1 2.49,-4.68 0.7,-10.49 -3.960001,-12.98 -1.43,-0.76 -2.98,-1.12 -4.5,-1.12"
     id="path369"
     style="display:inline;fill:#78bb73;fill-opacity:1" />
  <path
     class="cls-4"
     d="m 109.37989,104.72081 c -3.81,0 -7.51,2.05 -9.430001,5.66 -2.74,5.19 -0.78,11.64 4.420001,14.42 1.59,0.84 3.3,1.24 4.98,1.24 3.82,0 7.51,-2.05 9.44,-5.66 2.75,-5.21 0.78,-11.66 -4.42,-14.41 -1.59,-0.85 -3.3,-1.25 -4.99,-1.25"
     id="path371"
     style="display:inline;fill:#78bb73;fill-opacity:1" />
  <path
     class="cls-9"
     d="m 215.69989,112.42081 c 0,27.02 16,49.33 48.8,49.33 17.05,0 30.16,-4.71 36.72,-7.88 l -2.11,-17.31 c -6.55,3.15 -16.51,7.1 -29.36,7.1 -20.72,0 -31.5,-13.39 -31.5,-33.85 0,-29.9 20.74,-62.44 53.79,-62.44 9.44,0 16.52,2.37 21.5,4.72 l 6.3,-17.309997 c -3.95,-2.1 -14.7,-5.5 -26.51,-5.5 -45.63,0 -77.64,39.859997 -77.64,83.149997 z"
     id="path373"
     style="display:inline;fill:#005595;fill-opacity:1" />
  <path
     class="cls-9"
     d="m 357.65989,130.79081 c 0,-6.56 1.06,-13.11 2.37,-20.2 l 11.79,-61.63 h 30.43 l 3.41,-17.069997 h -30.43 l 5.77,-30.4299996 -22.8,7.1 -4.47,23.3399996 h -18.09 l -3.42,17.069997 h 18.36 l -12.61,64.25 c -1.83,9.19 -2.6,16.54 -2.6,23.88 0,12.85 7.35,24.66 26.75,24.66 6.29,0 12.85,-1.05 16.8,-2.35 l 1.05,-17.32 c -2.89,0.78 -6.56,1.05 -10.24,1.05 -8.38,0 -12.07,-4.72 -12.07,-12.33 z"
     id="path375"
     style="display:inline;fill:#005595;fill-opacity:1" />
  <path
     class="cls-9"
     d="m 469.95989,29.020813 c -41.19,0 -70.31,38.819997 -70.31,80.519997 0,28.61 17.85,52.22 49.57,52.22 42.5,0 70.31,-40.66 70.31,-79.75 0,-27.02 -15.21,-52.979997 -49.58,-52.979997 z m -17.83,115.409997 c -18.63,0 -29.91,-14.94 -29.91,-35.66 -0.26,-29.12 18.09,-62.44 45.38,-62.44 22.83,0 29.65,20.72 29.65,35.42 0,29.65 -19.41,62.69 -45.12,62.69 z"
     id="path377"
     style="display:inline;fill:#005595;fill-opacity:1" />
  <path
     class="cls-9"
     d="m 156.15989,29.020813 c -20.59,0 -38.17,9.71 -50.59,24.629997 0.89,3.03 0.65,6.39 -0.96,9.39 -1.97,3.7 -5.530001,6 -9.380001,6.52 -6.02,12.06 -9.36,25.85 -9.36,39.97 0,28.61 17.850001,52.22 49.580001,52.22 42.51,0 70.31,-40.66 70.31,-79.75 0,-27.02 -15.22,-52.979997 -49.59,-52.979997 z m -17.83,115.409997 c -18.63,0 -29.9,-14.94 -29.9,-35.66 -0.03,-3.82 0.26,-7.71 0.85,-11.59 -1.18,-0.21 -2.35,-0.59 -3.46,-1.18 -5.73,-3.05 -7.910001,-10.15 -4.85,-15.86 2.91,-5.47 9.54,-7.68 15.13,-5.19 7.81,-16.24 21.11,-28.61 37.72,-28.61 22.81,0 29.64,20.72 29.64,35.42 0,29.65 -19.42,62.69 -45.13,62.69 z"
     id="path379"
     style="display:inline;fill:#005595;fill-opacity:1" />
  <path
     class="cls-1"
     d="m 4.8198895,88.66081 c -1.62,0 -3.19,0.87 -4.01000003,2.4 -1.16,2.22 -0.31,4.97 1.88000003,6.13 0.68,0.36 1.42,0.54 2.14,0.54 1.62,0 3.18,-0.87 3.99,-2.41 1.17,-2.22 0.34,-4.96 -1.87,-6.13 -0.68,-0.36 -1.41,-0.53 -2.13,-0.53"
     id="path381"
     style="display:inline;fill:#78bb73;fill-opacity:1" />
  <path
     class="cls-1"
     d="m 5.8698895,107.50081 c -2.1,0 -4.12,1.13 -5.19000003,3.11 -1.51,2.86 -0.42,6.41 2.43000003,7.94 0.88,0.46 1.83,0.68 2.75,0.68 2.1,0 4.13,-1.13 5.1799995,-3.12 1.52,-2.85 0.45,-6.4 -2.4199995,-7.92 -0.88,-0.47 -1.82,-0.69 -2.75,-0.69"
     id="path383"
     style="display:inline;fill:#78bb73;fill-opacity:1" />
  <path
     class="cls-1"
     d="m 17.249889,127.64081 c -2.68,0 -5.26,1.44 -6.6,3.97 -1.9299995,3.62 -0.55,8.14 3.1,10.08 1.12,0.6 2.32,0.88 3.5,0.88 2.66,0 5.23,-1.43 6.57,-3.95 1.93,-3.63 0.56,-8.17 -3.08,-10.11 -1.12,-0.59 -2.31,-0.87 -3.49,-0.87"
     id="path385"
     style="display:inline;fill:#78bb73;fill-opacity:1" />
  <path
     class="cls-1"
     d="m 9.7398895,71.41081 c -1.24,0 -2.43,0.67 -3.05,1.84 -0.91,1.68 -0.28,3.78 1.43,4.68 0.51,0.28 1.07,0.41 1.61,0.41 1.2399995,0 2.4299995,-0.67 3.0599995,-1.84 0.9,-1.69 0.26,-3.79 -1.42,-4.68 -0.52,-0.28 -1.08,-0.41 -1.6299995,-0.41"
     id="path387"
     style="display:inline;fill:#78bb73;fill-opacity:1" />
  <path
     class="cls-7"
     d="m 37.629889,140.75081 c -2.86,0 -5.64,1.55 -7.09,4.26 -2.07,3.89 -0.58,8.71 3.31,10.8 1.2,0.64 2.48,0.94 3.75,0.94 2.86,0 5.63,-1.54 7.07,-4.24 2.05,-3.9 0.58,-8.74 -3.31,-10.82 -1.19,-0.64 -2.47,-0.94 -3.73,-0.94"
     id="path389"
     style="display:inline;fill:#78bb73;fill-opacity:1" />
  <path
     class="cls-2"
     d="m 62.989889,31.500813 c -4.77,0 -9.38,2.56 -11.78,7.06 -3.45,6.499997 -1,14.559997 5.51,18.019997 2,1.07 4.14,1.57 6.25,1.57 4.77,0 9.38,-2.57 11.78,-7.07 3.45,-6.49 0.98,-14.559997 -5.5,-18.019997 -1.99,-1.06 -4.14,-1.56 -6.25,-1.56"
     id="path391"
     style="display:inline;fill:#78bb73;fill-opacity:1" />
  <path
     class="cls-6"
     d="m 40.679889,59.55081 c 3.74,-7.05 1.07,-15.75 -5.95,-19.469997 -7.02,-3.72 -15.74,-1.07 -19.48,5.949997 -3.71,7.01 -1.05,15.73 5.98,19.45 7,3.73 15.7,1.08 19.45,-5.93 z"
     id="path393"
     style="display:inline;fill:#78bb73;fill-opacity:1" />
  <path
     class="cls-5"
     d="m 65.889889,143.53081 c -3.14,0 -6.18,1.7 -7.77,4.67 -2.28,4.3 -0.65,9.62 3.63,11.89 1.32,0.7 2.74,1.03 4.13,1.03 3.15,0 6.18,-1.69 7.76,-4.66 2.29,-4.29 0.65,-9.61 -3.63,-11.89 -1.32,-0.7 -2.73,-1.04 -4.12,-1.04"
     id="path395"
     style="display:inline;fill:#78bb73;fill-opacity:1" />
  <path
     class="cls-8"
     d="m 111.33989,73.90081 c -4.2,0 -8.26,2.26 -10.36,6.22 -3.060001,5.72 -0.88,12.81 4.85,15.86 1.75,0.93 3.63,1.37 5.48,1.37 4.2,0 8.26,-2.26 10.37,-6.23 3.04,-5.7 0.87,-12.8 -4.84,-15.85 -1.75,-0.93 -3.64,-1.37 -5.49,-1.37"
     id="path397"
     style="display:inline;fill:#78bb73;fill-opacity:1" />
  <path
     class="cls-3"
     d="m 93.539889,44.64081 c -4.48,0 -8.81,2.42 -11.07,6.64 -3.24,6.12 -0.91,13.7 5.2,16.94 1.88,1 3.89,1.47 5.87,1.47 4.48,0 8.820001,-2.41 11.070001,-6.65 3.26,-6.1 0.92,-13.7 -5.180001,-16.92 -1.88,-1 -3.9,-1.48 -5.89,-1.48"
     id="path399"
     style="display:inline;fill:#78bb73;fill-opacity:1" />
  <g
     inkscape:groupmode="layer"
     id="layer1"
     inkscape:label="Logo elements"
     transform="translate(0,-58.1563)" />
  <g
     inkscape:groupmode="layer"
     id="layer2"
     inkscape:label="innovation"
     transform="translate(0,-58.1563)" />
  <text
     xml:space="preserve"
     style="font-weight:bold;font-size:156px;line-height:normal;font-family:Calibri;-inkscape-font-specification:'Calibri Bold';text-decoration-color:#000000;fill:#ffffff;stroke-width:0.96;stop-color:#000000"
     x="520.16998"
     y="160.92566"
     id="text2680"><tspan
       sodipodi:role="line"
       id="tspan2678"
       x="520.16998"
       y="160.92566"
       style="font-style:normal;font-variant:normal;font-weight:900;font-stretch:normal;font-size:156px;font-family:Avenir;-inkscape-font-specification:'Avenir Heavy';fill:#78bb73;fill-opacity:1">innovation</tspan></text>
</svg>
